<?xml version="1.0" encoding="utf-8"?>
<!-- Generator: Adobe Illustrator 18.0.0, SVG Export Plug-In . SVG Version: 6.00 Build 0)  -->
<!DOCTYPE svg PUBLIC "-//W3C//DTD SVG 1.1//EN" "http://www.w3.org/Graphics/SVG/1.1/DTD/svg11.dtd">
<svg version="1.1" id="Layer_1" xmlns="http://www.w3.org/2000/svg" xmlns:xlink="http://www.w3.org/1999/xlink" x="0px" y="0px"
	 viewBox="-0.1 63.8 596.2 713.4" enable-background="new -0.1 63.8 596.2 713.4" xml:space="preserve">
<g>
	<path fill="#57448F" d="M567.6,751.3c-73.8,14.3-147.6,5-221.3,6.7c-13.4,0-21,4.2-19.3,18.4c83.8,0,167.7,0,251.5,0
		C580.2,766.4,589.4,747.1,567.6,751.3z"/>
	<path fill="#57448F" d="M207.9,100.7c0-3.4,0-7.5-0.8-10.9c-68.8,0-138.3,0-207.1,0c0,5.9,0,10.9,0,16.8
		C68.8,100.7,139.2,114.1,207.9,100.7z"/>
	<path fill="#57448F" d="M28.5,187.9c14.3-0.8,36.1-7.5,42.8,10.9c7.5,19.3,13.4,15.1,21.8,2.5c5-8.4,8.4-18.4,14.3-29.3
		c-36.9-3.4-72.1-1.7-107.3,1.7c0,5.9,0,10.9,0,16.8C9.2,191.2,19.3,188.7,28.5,187.9z"/>
	<path fill="#57448F" d="M43.6,639.8C25.2,654,21,680.9,0,693.4c0,10.9,0,22.6,0,33.5c30.2-16.8,33.5-53.7,56.2-76.3
		C53.7,644.8,62.9,623.8,43.6,639.8z"/>
	<path fill="#57448F" d="M558.4,448.6c-9.2-21-11.7-21-31.9-14.3c2.5,4.2,5,9.2,9.2,12.6c23.5,21,20.1,64.6,59.5,71.3
		c0-5.9,0-10.9,0-16.8C576.8,488,567.6,468.7,558.4,448.6z"/>
	<path fill="#57448F" d="M509.8,186.2c-0.8,10.9-6.7,23.5,13.4,21c-2.5-9.2,0-14.3,10.9-16.8c21-5,41.1-2.5,62-0.8
		c0-5.9,0-10.9,0-16.8c-23.5,0-47,0-70.4-0.8C514,171.9,510.6,176.1,509.8,186.2z"/>
	<path fill="#57448F" d="M0,131.7c0,5.9,0,10.9,0,16.8c36.9,0,72.9,0,109.8,0C72.9,138.4,36.9,126.7,0,131.7z"/>
	<path fill="#57448F" d="M540.8,634.7c10.9,32.7,18.4,67.9,54.5,83.8c0-8.4,0-16.8,0-25.2C569.3,680.9,574.3,639.8,540.8,634.7z"/>
	<path fill="#57448F" d="M27.7,609.6c-0.8-11.7-18.4-3.4-27.7-8.4c0,16.8,0,33.5,0,50.3C15.9,641.5,28.5,627.2,27.7,609.6z"/>
	<path fill="#57448F" d="M529.9,90.6c-4.2,12.6,2.5,16.8,13.4,16.8c17.6,0,34.4-0.8,52-0.8c0-5.9,0-10.9,0-16.8
		C573.5,89.8,551.7,90.6,529.9,90.6z"/>
	<path fill="#57448F" d="M561.7,265c-6.7-18.4-14.3-36.1-33.5-44.4c-3.4,30.2,18.4,49.5,33.5,71.3l0,0c9.2,12.6,8.4,36.9,34.4,31.9
		c0-5.9,0-10.9,0-16.8C563.4,310.3,584.4,270,561.7,265z"/>
	<path fill="#57448F" d="M290.9,111.6c18.4-8.4,12.6-24.3,11.7-39.4c0-2.5-0.8-5-0.8-8.4c-2.5,0-5.9,0-8.4,0
		c-0.8,4.2,0,8.4-1.7,11.7c-5.9,11.7-19.3,20.1-11.7,35.2C280.9,113.2,288.4,113.2,290.9,111.6z"/>
	<path fill="#57448F" d="M561.7,220.6c13.4,10.1,14.3,31,33.5,36.9c0-14.3,0-27.7,0-41.9C585.2,215.5,574.3,209.7,561.7,220.6z"/>
	<path fill="#57448F" d="M252.4,768.1c-47-22.6-95.6-3.4-143.4-5.9c-21.8-1.7-43.6-2.5-65.4-5.9c-7.5-0.8,8.4-32.7-15.9-16.8
		c-10.9,7.5-21,24.3-2.5,37.7c27.7,0,56.2,0,83.8,0c44.4,0,89.7,0,134.1,0c19.3,0,39.4,0,58.7,0C291.8,737,270,767.2,252.4,768.1z"
		/>
	<path fill="#57448F" d="M23.5,421.8c1.7-18.4-13.4-13.4-23.5-13.4c0,10.9,0,22.6,0,33.5C18.4,446.9,22.6,433.5,23.5,421.8z"/>
	<path fill="#57448F" d="M595.3,643.1c0-14.3,0-27.7,0-41.9C569.3,616.3,569.3,624.7,595.3,643.1z"/>
	<path fill="#57448F" d="M564.3,412.6c10.9,15.9,21,31,31,46.1c0-10.9,0-22.6,0-33.5C585.2,423.5,583.5,405.9,564.3,412.6z"/>
	<path fill="#57448F" d="M29.3,493c0.8-2.5-1.7-8.4-3.4-9.2c-17.6-8.4-13.4,16.8-26,17.6c0,5.9,0,10.9,0,16.8
		C22.6,524.9,24.3,506.5,29.3,493z"/>
	<path fill="#57448F" d="M127.4,732.8c115.7,0,231.4-0.8,347.1,0c12.6,0,27.7,3.4,33.5-8.4c5-10.9-11.7-16.8-15.1-27.7
		c-15.9,5-25.2,21.8-46.1,21c-99.8-2.5-199.5-1.7-299.3-2.5c-9.2,0-24.3,3.4-27.7-1.7c-18.4-26-25.2-4.2-35.2,6.7
		C96.4,737,112.3,732.8,127.4,732.8z"/>
	<path fill="#57448F" d="M158.5,373.2c-5.9-20.1,24.3-26.8,16.8-50.3c-17.6,0-36.9,0-57.9,0c8.4-38.6,52.8-59.5,41.9-103.1
		c-25.2,37.7-55.3,72.9-66.2,124.1C129.1,331.2,146.7,347.2,158.5,373.2z"/>
	<path fill="#57448F" d="M396.6,181.2c21.8,45.3,48.6,88,81.3,125.8c-12.6,31.9-43.6,5.9-67.1,22.6c23.5,8.4,16.8,39.4,41.9,46.1
		c-3.4,21.8,12.6,30.2,26.8,39.4l0,0c-5.9,26,8.4,41.9,26.8,56.2l0,0l0,0c6.7,31.9,31,53.7,46.1,80.5c-3.4,7.5-9.2,9.2-16.8,9.2
		c-47,2.5-47,3.4-24.3,41.1c5,2.5,9.2,5.9,14.3,6.7c4.2,0.8,8.4-2.5,5-7.5c-20.1-31,8.4-22.6,21-24.3c13.4-1.7,32.7,9.2,27.7-18.4
		c-3.4-5-7.5-10.9-10.9-15.9c-19.3-26.8-26-62.9-57.9-81.3c-5.9-16.8-9.2-36.1-28.5-45.3c-0.8-21.8-13.4-36.9-30.2-48.6l0,0
		c-0.8-14.3-13.4-34.4,19.3-26c10.1,2.5,29.3,8.4,33.5-5.9c4.2-16.8-10.1-25.2-26-28.5c8.4-9.2,6.7-18.4-0.8-28.5
		c-25.2-36.1-49.5-72.1-73.8-109l0,0c-3.4-23.5-24.3-37.7-33.5-62.9c36.9,0,69.6,0,102.3,0c17.6,0,14.3-7.5,5-15.9
		c-26-0.8-52.8-2.5-78.8-1.7c-17.6,0-43.6-9.2-51.1,4.2c-9.2,16.8,15.9,31.9,22.6,48.6C376.5,157.7,391.5,166.1,396.6,181.2z"/>
	<path fill="#57448F" d="M83.8,602.9c8.4-10.1,22.6-20.1,12.6-34.4c-12.6-15.9-32.7-7.5-51.1-7.5c-2.5-12.6,11.7-22.6,5-35.2
		c21-19.3,37.7-41.9,51.1-67.1c-11.7,0-23.5-2.5-30.2,13.4c-7.5,18.4-20.1,35.2-30.2,52.8l0,0c-8.4,1.7-8.4,10.1-11.7,15.1
		c-16.8,22.6-31.9,41.9,15.9,36.9c14.3,0,26,3.4,21.8,24.3C65.4,609.6,78,602.9,83.8,602.9z"/>
	<path fill="#57448F" d="M348.8,295.2c6.7,15.1,14.3,34.4,33.5,45.3c0.8-1.7,1.7-2.5,2.5-4.2c3.4-11.7-20.1-31.9,14.3-34.4
		c42.8-2.5,42.8-5,14.3-45.3c-11.7-13.4-14.3-35.2-37.7-44.4c0.8,23.5,16.8,32.7,29.3,44.4l0,0l0,0
		C416.7,321.2,357.2,264.2,348.8,295.2z"/>
	<path fill="#57448F" d="M176.9,260.8c7.5,17.6-18.4,19.3-16.8,33.5c19.3,22.6,40.2,0,62.9,8.4c0,12.6-26.8,19.3-6.7,38.6
		c13.4-13.4,27.7-28.5,24.3-45.3c-3.4-16.8-27.7-13.4-39.4-10.9C175.2,290.2,196.2,260.8,176.9,260.8z"/>
	<path fill="#57448F" d="M253.2,259.1c35.2,5,72.1,0.8,118.2,0.8c-16.8-20.1-26-31.9-35.2-43.6c-4.2,10.9,5.9,32.7-15.9,31
		c-24.3-1.7-56.2,12.6-67.9-24.3C251.5,235.7,213,253.3,253.2,259.1z"/>
	<path fill="#57448F" d="M113.2,521.6c-5-14.3,17.6-22.6,6.7-40.2c-18.4,11.7-29.3,28.5-26.8,47c2.5,18.4,25.2,0.8,36.1,10.1
		c3.4,2.5,7.5,3.4,11.7,4.2c-3.4,21-28.5,36.1-16.8,61.2c5-22.6,32.7-30.2,33.5-54.5C169.4,528.3,169.4,528.3,113.2,521.6z"/>
	<path fill="#57448F" d="M156.8,499.8c16.8,0,33.5,0,50.3,0c-20.1-17.6-16.8-37.7-4.2-57.9c9.2-8.4,6.7-22.6,21-30.2
		c17.6-9.2,0-15.9-5.9-21.8c-10.9,16.8-26.8,30.2-24.3,52.8C174.4,456.2,166.8,478,156.8,499.8z"/>
	<path fill="#57448F" d="M443.5,552.6L443.5,552.6c3.4,28.5,16.8,50.3,41.9,63.7c-6.7-26-15.9-50.3-40.2-65.4
		c0.8-13.4,8.4-13.4,20.1-14.3c46.1-0.8,45.3-1.7,21-44.4c-6.7-19.3-14.3-36.9-41.1-42.8c7.5,20.1,15.9,33.5,31,43.6l0,0l0,0
		c1.7,10.1,4.2,20.1,6.7,33.5c-21.8,0-41.9,0-68.8,0C428.4,537.5,430.9,550.1,443.5,552.6z"/>
	<path fill="#57448F" d="M433.5,419.3c-2.5-19.3-30.2-66.2-48.6-83c0,1.7-0.8,3.4-2.5,4.2C388.2,374,408.3,398.3,433.5,419.3z"/>
	<path fill="#57448F" d="M485.4,623.8c4.2,28.5,16.8,44.4,42.8,62C520.7,655.7,515.6,635.6,485.4,623.8z"/>
	<path fill="#57448F" d="M137.5,459.5c18.4-12.6,27.7-30.2,31.9-51.1C147.6,419.3,140,438.6,137.5,459.5z"/>
	<path fill="#57448F" d="M277.5,315.3c10.1-12.6,25.2-14.3,39.4-16.8c-5.9-10.9-11.7-21-20.1-34.4
		C286.7,282.6,278.4,297.7,277.5,315.3z"/>
	<path fill="#57448F" d="M378.1,509c8.4-16.8,25.2-16.8,40.2-17.6c-18.4-15.9-35.2-0.8-52.8,2.5c-5,0.8-11.7,5-8.4,10.9
		C362.2,512.3,369.7,516.5,378.1,509z"/>
	<path fill="#57448F" d="M486.3,685c-9.2-15.1-17.6-31-26.8-46.1C441.8,669.1,458.6,680,486.3,685z"/>
	<path fill="#57448F" d="M134.1,644.8c-10.1,13.4-19.3,26.8-29.3,41.1C145.9,694.3,136.7,666.6,134.1,644.8z"/>
	<path fill="#57448F" d="M377.3,391.6c-14.3-12.6-17.6-35.2-38.6-41.9C350.5,364.8,338.7,400.8,377.3,391.6z"/>
	<path fill="#57448F" d="M37.7,336.3c33.5-8.4,41.9-36.1,58.7-73.8C55.3,281.8,56.2,315.3,37.7,336.3z"/>
	<path fill="#57448F" d="M176.1,135c1.7-5-20.1-8.4-28.5-3.4c-23.5,13.4,12.6,30.2-2.5,46.1C167.7,169.4,171,150.1,176.1,135z"/>
	<path fill="#57448F" d="M62.9,224.8c-16.8,5.9-19.3,23.5-29.3,35.2c-2.5,3.4-7.5,8.4-0.8,15.9c26.8-1.7,27.7-27.7,38.6-44.4
		C70.4,230.6,64.6,223.9,62.9,224.8z"/>
	<path fill="#57448F" d="M70.4,395.8c-5.9,9.2-12.6,17.6-15.9,27.7c-2.5,6.7,5,7.5,11.7,7.5c10.1-4.2,16.8-12.6,14.3-25.2
		C79.7,402.5,73.8,399.1,70.4,395.8z"/>
	<path fill="#57448F" d="M72.1,367.3c-18.4,8.4-39.4-1.7-56.2,12.6C35.2,380.7,57.9,393.3,72.1,367.3z"/>
	<path fill="#57448F" d="M460.3,130.9c-5-0.8-10.9-0.8-15.9-1.7c-34.4,4.2-29.3,18.4-10.1,36.1l0,0c8.4,14.3,16.8,29.3,25.2,43.6
		l0,0c7.5,18.4,13.4,37.7,35.2,44.4c17.6-23.5-17.6-28.5-15.9-46.1c-13.4-12.6-13.4-36.1-35.2-41.9l0,0l0,0
		c4.2-6.7,8.4-13.4,17.6-15.1c11.7-1.7,32.7,8.4,31-12.6C491.3,125,472,133.4,460.3,130.9z"/>
	<path fill="#57448F" d="M574.3,380.7c9.2-9.2-4.2-21-9.2-31c-3.4-5.9-6.7-11.7-10.9-17.6c-10.9-23.5-18.4-48.6-42.8-62.9
		c-0.8,29.3,20.1,49.5,32.7,72.9c11.7,13.4,1.7,22.6-6.7,31.9C548.3,384.1,564.3,390.8,574.3,380.7z"/>
	<path fill="#57448F" d="M568.5,134.2c-17.6-5.9-34.4-10.9-52,15.1C540.8,147.6,558.4,156.8,568.5,134.2z"/>
	<path fill="#57448F" d="M217.2,675c-10.1-1.7-30.2,11.7-27.7-15.1c-15.9-2.5-21,11.7-20.1,20.1c0,14.3,14.3,6.7,22.6,8.4
		c45.3,7.5,89.7-0.8,135-3.4C291.8,663.2,253.2,681.7,217.2,675z"/>
	<path fill="#57448F" d="M268.3,399.1c-20.1,12.6-36.1,33.5-29.3,52.8c6.7,18.4,31,0,47.8,2.5c2.5,0,5,2.5,6.7,3.4h4.2l3.4,0.8
		c8.4-8.4,25.2,2.5,31.9-16.8c-24.3,0-47,0-68.8,0C259.1,424.3,275.8,412.6,268.3,399.1z"/>
	<path fill="#57448F" d="M354.7,684.2c15.1,2.5,29.3,5,44.4,6.7c11.7,1.7,28.5,6.7,33.5-5.9c5.9-15.1-7.5-23.5-21.8-26.8
		c-0.8,10.1-1.7,17.6-15.9,16.8C380.6,673.3,364.7,666.6,354.7,684.2z"/>
	<path fill="#57448F" d="M297.6,366.4c2.5,20.1,15.1,35.2,27.7,50.3c7.5,9.2,10.1-1.7,10.9-8.4C326.1,391.6,327.8,363.9,297.6,366.4
		z"/>
	<path fill="#57448F" d="M388.2,601.2c-14.3-10.9-9.2-38.6-35.2-39.4C352.1,585.3,354.7,607.1,388.2,601.2z"/>
	<path fill="#57448F" d="M275,567.7c5,4.2-8.4,22.6,10.9,13.4c4.2-2.5,8.4-15.9,13.4-10.1c14.3,15.9,36.1,31.9,33.5,53.7
		c-2.5,18.4-26,5.9-39.4,7.5c-15.9,1.7-33.5,0-49.5,0c-5.9,17.6,3.4,15.9,16.8,17.6c34.4,3.4,67.1-2.5,107.3-4.2
		c-34.4-31.9-45.3-71.3-69.6-104.8C289.3,550.9,281.7,559.3,275,567.7z"/>
</g>
</svg>
