<?xml version="1.0" encoding="utf-8"?>
<!-- Generator: Adobe Illustrator 18.0.0, SVG Export Plug-In . SVG Version: 6.00 Build 0)  -->
<!DOCTYPE svg PUBLIC "-//W3C//DTD SVG 1.1//EN" "http://www.w3.org/Graphics/SVG/1.1/DTD/svg11.dtd">
<svg version="1.1" id="Layer_1" xmlns="http://www.w3.org/2000/svg" xmlns:xlink="http://www.w3.org/1999/xlink" x="0px" y="0px"
	 viewBox="0 0 71 85" enable-background="new 0 0 71 85" xml:space="preserve">
<g>
	<path fill="#55468F" d="M67.7,81.9c-8.8,1.7-17.6,0.6-26.4,0.8c-1.6,0-2.5,0.5-2.3,2.2c10,0,20,0,30,0
		C69.2,83.7,70.3,81.4,67.7,81.9z"/>
	<path fill="#55468F" d="M24.8,4.3c0-0.4,0-0.9-0.1-1.3C16.5,3,8.2,3,0,3c0,0.7,0,1.3,0,2C8.2,4.3,16.6,5.9,24.8,4.3z"/>
	<path fill="#55468F" d="M3.4,14.7c1.7-0.1,4.3-0.9,5.1,1.3c0.9,2.3,1.6,1.8,2.6,0.3c0.6-1,1-2.2,1.7-3.5C8.4,12.4,4.2,12.6,0,13
		c0,0.7,0,1.3,0,2C1.1,15.1,2.3,14.8,3.4,14.7z"/>
	<path fill="#55468F" d="M5.2,68.6C3,70.3,2.5,73.5,0,75c0,1.3,0,2.7,0,4c3.6-2,4-6.4,6.7-9.1C6.4,69.2,7.5,66.7,5.2,68.6z"/>
	<path fill="#55468F" d="M66.6,45.8c-1.1-2.5-1.4-2.5-3.8-1.7c0.3,0.5,0.6,1.1,1.1,1.5c2.8,2.5,2.4,7.7,7.1,8.5c0-0.7,0-1.3,0-2
		C68.8,50.5,67.7,48.2,66.6,45.8z"/>
	<path fill="#55468F" d="M60.8,14.5c-0.1,1.3-0.8,2.8,1.6,2.5c-0.3-1.1,0-1.7,1.3-2c2.5-0.6,4.9-0.3,7.4-0.1c0-0.7,0-1.3,0-2
		c-2.8,0-5.6,0-8.4-0.1C61.3,12.8,60.9,13.3,60.8,14.5z"/>
	<path fill="#55468F" d="M0,8c0,0.7,0,1.3,0,2c4.4,0,8.7,0,13.1,0C8.7,8.8,4.4,7.4,0,8z"/>
	<path fill="#55468F" d="M64.5,68c1.3,3.9,2.2,8.1,6.5,10c0-1,0-2,0-3C67.9,73.5,68.5,68.6,64.5,68z"/>
	<path fill="#55468F" d="M3.3,65c-0.1-1.4-2.2-0.4-3.3-1c0,2,0,4,0,6C1.9,68.8,3.4,67.1,3.3,65z"/>
	<path fill="#55468F" d="M63.2,3.1c-0.5,1.5,0.3,2,1.6,2C66.9,5.1,68.9,5,71,5c0-0.7,0-1.3,0-2C68.4,3,65.8,3.1,63.2,3.1z"/>
	<path fill="#55468F" d="M67,23.9c-0.8-2.2-1.7-4.3-4-5.3c-0.4,3.6,2.2,5.9,4,8.5c0,0,0,0,0,0c1.1,1.5,1,4.4,4.1,3.8
		c0-0.7,0-1.3,0-2C67.2,29.3,69.7,24.5,67,23.9z"/>
	<path fill="#55468F" d="M34.7,5.6c2.2-1,1.5-2.9,1.4-4.7c0-0.3-0.1-0.6-0.1-1c-0.3,0-0.7,0-1,0c-0.1,0.5,0,1-0.2,1.4
		c-0.7,1.4-2.3,2.4-1.4,4.2C33.5,5.8,34.4,5.8,34.7,5.6z"/>
	<path fill="#55468F" d="M67,18.6c1.6,1.2,1.7,3.7,4,4.4c0-1.7,0-3.3,0-5C69.8,18,68.5,17.3,67,18.6z"/>
	<path fill="#55468F" d="M30.1,83.9c-5.6-2.7-11.4-0.4-17.1-0.7c-2.6-0.2-5.2-0.3-7.8-0.7c-0.9-0.1,1-3.9-1.9-2
		C2,81.4,0.8,83.4,3,85c3.3,0,6.7,0,10,0c5.3,0,10.7,0,16,0c2.3,0,4.7,0,7,0C34.8,80.2,32.2,83.8,30.1,83.9z"/>
	<path fill="#55468F" d="M2.8,42.6C3,40.4,1.2,41,0,41c0,1.3,0,2.7,0,4C2.2,45.6,2.7,44,2.8,42.6z"/>
	<path fill="#55468F" d="M71,69c0-1.7,0-3.3,0-5C67.9,65.8,67.9,66.8,71,69z"/>
	<path fill="#55468F" d="M67.3,41.5c1.3,1.9,2.5,3.7,3.7,5.5c0-1.3,0-2.7,0-4C69.8,42.8,69.6,40.7,67.3,41.5z"/>
	<path fill="#55468F" d="M3.5,51.1c0.1-0.3-0.2-1-0.4-1.1c-2.1-1-1.6,2-3.1,2.1c0,0.7,0,1.3,0,2C2.7,54.9,2.9,52.7,3.5,51.1z"/>
	<path fill="#55468F" d="M15.2,79.7c13.8,0,27.6-0.1,41.4,0c1.5,0,3.3,0.4,4-1c0.6-1.3-1.4-2-1.8-3.3c-1.9,0.6-3,2.6-5.5,2.5
		c-11.9-0.3-23.8-0.2-35.7-0.3c-1.1,0-2.9,0.4-3.3-0.2c-2.2-3.1-3-0.5-4.2,0.8C11.5,80.2,13.4,79.7,15.2,79.7z"/>
	<path fill="#55468F" d="M18.9,36.8c-0.7-2.4,2.9-3.2,2-6c-2.1,0-4.4,0-6.9,0c1-4.6,6.3-7.1,5-12.3c-3,4.5-6.6,8.7-7.9,14.8
		C15.4,31.8,17.5,33.7,18.9,36.8z"/>
	<path fill="#55468F" d="M47.3,13.9c2.6,5.4,5.8,10.5,9.7,15c-1.5,3.8-5.2,0.7-8,2.7c2.8,1,2,4.7,5,5.5c-0.4,2.6,1.5,3.6,3.2,4.7
		l0,0c-0.7,3.1,1,5,3.2,6.7c0,0,0,0,0,0c0,0,0,0,0,0c0.8,3.8,3.7,6.4,5.5,9.6c-0.4,0.9-1.1,1.1-2,1.1c-5.6,0.3-5.6,0.4-2.9,4.9
		c0.6,0.3,1.1,0.7,1.7,0.8c0.5,0.1,1-0.3,0.6-0.9c-2.4-3.7,1-2.7,2.5-2.9c1.6-0.2,3.9,1.1,3.3-2.2c-0.4-0.6-0.9-1.3-1.3-1.9
		c-2.3-3.2-3.1-7.5-6.9-9.7c-0.7-2-1.1-4.3-3.4-5.4c-0.1-2.6-1.6-4.4-3.6-5.8c0,0,0,0,0,0c-0.1-1.7-1.6-4.1,2.3-3.1
		c1.2,0.3,3.5,1,4-0.7c0.5-2-1.2-3-3.1-3.4c1-1.1,0.8-2.2-0.1-3.4c-3-4.3-5.9-8.6-8.8-13c0,0,0,0,0,0c-0.4-2.8-2.9-4.5-4-7.5
		c4.4,0,8.3,0,12.2,0c2.1,0,1.7-0.9,0.6-1.9c-3.1-0.1-6.3-0.3-9.4-0.2c-2.1,0-5.2-1.1-6.1,0.5c-1.1,2,1.9,3.8,2.7,5.8
		C44.9,11.1,46.7,12.1,47.3,13.9z"/>
	<path fill="#55468F" d="M10,64.2c1-1.2,2.7-2.4,1.5-4.1c-1.5-1.9-3.9-0.9-6.1-0.9C5.1,57.7,6.8,56.5,6,55c2.5-2.3,4.5-5,6.1-8
		c-1.4,0-2.8-0.3-3.6,1.6c-0.9,2.2-2.4,4.2-3.6,6.3c0,0,0,0,0,0c-1,0.2-1,1.2-1.4,1.8c-2,2.7-3.8,5,1.9,4.4C7.1,61.1,8.5,61.5,8,64
		C7.8,65,9.3,64.2,10,64.2z"/>
	<path fill="#55468F" d="M41.6,27.5c0.8,1.8,1.7,4.1,4,5.4c0.1-0.2,0.2-0.3,0.3-0.5c0.4-1.4-2.4-3.8,1.7-4.1
		c5.1-0.3,5.1-0.6,1.7-5.4c-1.4-1.6-1.7-4.2-4.5-5.3c0.1,2.8,2,3.9,3.5,5.3c0,0,0,0,0,0l0,0C49.7,30.6,42.6,23.8,41.6,27.5z"/>
	<path fill="#55468F" d="M21.1,23.4c0.9,2.1-2.2,2.3-2,4c2.3,2.7,4.8,0,7.5,1c0,1.5-3.2,2.3-0.8,4.6c1.6-1.6,3.3-3.4,2.9-5.4
		c-0.4-2-3.3-1.6-4.7-1.3C20.9,26.9,23.4,23.4,21.1,23.4z"/>
	<path fill="#55468F" d="M30.2,23.2c4.2,0.6,8.6,0.1,14.1,0.1c-2-2.4-3.1-3.8-4.2-5.2c-0.5,1.3,0.7,3.9-1.9,3.7
		c-2.9-0.2-6.7,1.5-8.1-2.9C30,20.4,25.4,22.5,30.2,23.2z"/>
	<path fill="#55468F" d="M13.5,54.5c-0.6-1.7,2.1-2.7,0.8-4.8c-2.2,1.4-3.5,3.4-3.2,5.6c0.3,2.2,3,0.1,4.3,1.2
		c0.4,0.3,0.9,0.4,1.4,0.5c-0.4,2.5-3.4,4.3-2,7.3c0.6-2.7,3.9-3.6,4-6.5C20.2,55.3,20.2,55.3,13.5,54.5z"/>
	<path fill="#55468F" d="M18.7,51.9c2,0,4,0,6,0c-2.4-2.1-2-4.5-0.5-6.9c1.1-1,0.8-2.7,2.5-3.6c2.1-1.1,0-1.9-0.7-2.6
		c-1.3,2-3.2,3.6-2.9,6.3C20.8,46.7,19.9,49.3,18.7,51.9z"/>
	<path fill="#55468F" d="M52.9,58.2L52.9,58.2c0.4,3.4,2,6,5,7.6c-0.8-3.1-1.9-6-4.8-7.8c0.1-1.6,1-1.6,2.4-1.7
		c5.5-0.1,5.4-0.2,2.5-5.3c-0.8-2.3-1.7-4.4-4.9-5.1c0.9,2.4,1.9,4,3.7,5.2l0,0l0,0c0.2,1.2,0.5,2.4,0.8,4c-2.6,0-5,0-8.2,0
		C51.1,56.4,51.4,57.9,52.9,58.2z"/>
	<path fill="#55468F" d="M51.7,42.3c-0.3-2.3-3.6-7.9-5.8-9.9c0,0.2-0.1,0.4-0.3,0.5C46.3,36.9,48.7,39.8,51.7,42.3z"/>
	<path fill="#55468F" d="M57.9,66.7c0.5,3.4,2,5.3,5.1,7.4C62.1,70.5,61.5,68.1,57.9,66.7z"/>
	<path fill="#55468F" d="M16.4,47.1c2.2-1.5,3.3-3.6,3.8-6.1C17.6,42.3,16.7,44.6,16.4,47.1z"/>
	<path fill="#55468F" d="M33.1,29.9c1.2-1.5,3-1.7,4.7-2c-0.7-1.3-1.4-2.5-2.4-4.1C34.2,26,33.2,27.8,33.1,29.9z"/>
	<path fill="#55468F" d="M45.1,53c1-2,3-2,4.8-2.1c-2.2-1.9-4.2-0.1-6.3,0.3c-0.6,0.1-1.4,0.6-1,1.3C43.2,53.4,44.1,53.9,45.1,53z"
		/>
	<path fill="#55468F" d="M58,74c-1.1-1.8-2.1-3.7-3.2-5.5C52.7,72.1,54.7,73.4,58,74z"/>
	<path fill="#55468F" d="M16,69.2c-1.2,1.6-2.3,3.2-3.5,4.9C17.4,75.1,16.3,71.8,16,69.2z"/>
	<path fill="#55468F" d="M45,39c-1.7-1.5-2.1-4.2-4.6-5C41.8,35.8,40.4,40.1,45,39z"/>
	<path fill="#55468F" d="M4.5,32.4c4-1,5-4.3,7-8.8C6.6,25.9,6.7,29.9,4.5,32.4z"/>
	<path fill="#55468F" d="M21,8.4c0.2-0.6-2.4-1-3.4-0.4c-2.8,1.6,1.5,3.6-0.3,5.5C20,12.5,20.4,10.2,21,8.4z"/>
	<path fill="#55468F" d="M7.5,19.1c-2,0.7-2.3,2.8-3.5,4.2c-0.3,0.4-0.9,1-0.1,1.9c3.2-0.2,3.3-3.3,4.6-5.3
		C8.4,19.8,7.7,19,7.5,19.1z"/>
	<path fill="#55468F" d="M8.4,39.5c-0.7,1.1-1.5,2.1-1.9,3.3c-0.3,0.8,0.6,0.9,1.4,0.9c1.2-0.5,2-1.5,1.7-3
		C9.5,40.3,8.8,39.9,8.4,39.5z"/>
	<path fill="#55468F" d="M8.6,36.1c-2.2,1-4.7-0.2-6.7,1.5C4.2,37.7,6.9,39.2,8.6,36.1z"/>
	<path fill="#55468F" d="M54.9,7.9c-0.6-0.1-1.3-0.1-1.9-0.2c-4.1,0.5-3.5,2.2-1.2,4.3c0,0,0,0,0,0c1,1.7,2,3.5,3,5.2c0,0,0,0,0,0
		c0.9,2.2,1.6,4.5,4.2,5.3c2.1-2.8-2.1-3.4-1.9-5.5c-1.6-1.5-1.6-4.3-4.2-5c0,0,0,0,0,0l0,0c0.5-0.8,1-1.6,2.1-1.8
		c1.4-0.2,3.9,1,3.7-1.5C58.6,7.2,56.3,8.2,54.9,7.9z"/>
	<path fill="#55468F" d="M68.5,37.7c1.1-1.1-0.5-2.5-1.1-3.7c-0.4-0.7-0.8-1.4-1.3-2.1c-1.3-2.8-2.2-5.8-5.1-7.5
		c-0.1,3.5,2.4,5.9,3.9,8.7c1.4,1.6,0.2,2.7-0.8,3.8C65.4,38.1,67.3,38.9,68.5,37.7z"/>
	<path fill="#55468F" d="M67.8,8.3c-2.1-0.7-4.1-1.3-6.2,1.8C64.5,9.9,66.6,11,67.8,8.3z"/>
	<path fill="#55468F" d="M25.9,72.8c-1.2-0.2-3.6,1.4-3.3-1.8c-1.9-0.3-2.5,1.4-2.4,2.4c0,1.7,1.7,0.8,2.7,1
		c5.4,0.9,10.7-0.1,16.1-0.4C34.8,71.4,30.2,73.6,25.9,72.8z"/>
	<path fill="#55468F" d="M32,39.9c-2.4,1.5-4.3,4-3.5,6.3c0.8,2.2,3.7,0,5.7,0.3c0.3,0,0.6,0.3,0.8,0.4c0,0,0.5,0,0.5,0
		s0.4,0.1,0.4,0.1c1-1,3,0.3,3.8-2c-2.9,0-5.6,0-8.2,0C30.9,42.9,32.9,41.5,32,39.9z"/>
	<path fill="#55468F" d="M42.3,73.9c1.8,0.3,3.5,0.6,5.3,0.8c1.4,0.2,3.4,0.8,4-0.7c0.7-1.8-0.9-2.8-2.6-3.2c-0.1,1.2-0.2,2.1-1.9,2
		C45.4,72.6,43.5,71.8,42.3,73.9z"/>
	<path fill="#55468F" d="M35.5,36c0.3,2.4,1.8,4.2,3.3,6c0.9,1.1,1.2-0.2,1.3-1C38.9,39,39.1,35.7,35.5,36z"/>
	<path fill="#55468F" d="M46.3,64c-1.7-1.3-1.1-4.6-4.2-4.7C42,62.1,42.3,64.7,46.3,64z"/>
	<path fill="#55468F" d="M32.8,60c0.6,0.5-1,2.7,1.3,1.6c0.5-0.3,1-1.9,1.6-1.2c1.7,1.9,4.3,3.8,4,6.4c-0.3,2.2-3.1,0.7-4.7,0.9
		c-1.9,0.2-4,0-5.9,0c-0.7,2.1,0.4,1.9,2,2.1c4.1,0.4,8-0.3,12.8-0.5c-4.1-3.8-5.4-8.5-8.3-12.5C34.5,58,33.6,59,32.8,60z"/>
</g>
</svg>
